<svg xmlns="http://www.w3.org/2000/svg" fill="none" viewBox="0 0 96 96"><path fill="#EC5990" fill-rule="evenodd" d="M74.717 4.04a17.17 17.17 0 0 1 12.206 5.08 17.337 17.337 0 0 1 5.057 12.267v53.225c0 4.79-1.932 9.128-5.056 12.267a17.205 17.205 0 0 1-5.6 3.765 17.135 17.135 0 0 1-6.607 1.316H21.283a17.168 17.168 0 0 1-12.207-5.08A17.336 17.336 0 0 1 4.02 74.612V21.387c0-4.79 1.932-9.127 5.056-12.267a17.204 17.204 0 0 1 5.599-3.764 17.135 17.135 0 0 1 6.608-1.317h53.434Z" clip-rule="evenodd"/><path fill="#EBEEEF" fill-rule="evenodd" d="M63.079 24.525H53.21a5.466 5.466 0 0 0-10.412 0h-9.876a7.04 7.04 0 0 0-7.04 7.04v36.678a7.04 7.04 0 0 0 7.04 7.04H63.08a7.04 7.04 0 0 0 7.04-7.04V31.565a7.04 7.04 0 0 0-7.04-7.04Zm-19.789 1.28a.636.636 0 0 0 .64-.506 4.186 4.186 0 0 1 8.18 0 .642.642 0 0 0 .64.506h3.442v4.192c0 1.06-.86 1.92-1.92 1.92H41.76a1.92 1.92 0 0 1-1.92-1.92v-4.192h3.45Zm25.55 42.438a5.76 5.76 0 0 1-5.76 5.76H32.922a5.76 5.76 0 0 1-5.76-5.76V31.565a5.76 5.76 0 0 1 5.76-5.76h5.639v4.192a3.2 3.2 0 0 0 3.2 3.2h12.48a3.2 3.2 0 0 0 3.2-3.2v-4.192h5.638a5.76 5.76 0 0 1 5.76 5.76v36.678ZM61.824 45.44H50.56a.635.635 0 0 0-.59.395.644.644 0 0 0 .138.698.64.64 0 0 0 .452.187h11.264a.635.635 0 0 0 .591-.395.646.646 0 0 0 0-.49.643.643 0 0 0-.59-.395Zm-16.64 0H33.92a.635.635 0 0 0-.59.395.646.646 0 0 0 0 .49.643.643 0 0 0 .59.395h11.265a.635.635 0 0 0 .59-.395.646.646 0 0 0 0-.49.643.643 0 0 0-.59-.395Zm16.672 15.488H50.561a.636.636 0 0 0-.64.64.644.644 0 0 0 .64.64h11.295a.638.638 0 0 0 .591-.886.642.642 0 0 0-.59-.394Zm-16.64 0H33.92a.637.637 0 0 0-.64.64.646.646 0 0 0 .396.592.64.64 0 0 0 .244.048h11.296a.639.639 0 0 0 .452-1.093.64.64 0 0 0-.452-.187Z" clip-rule="evenodd"/></svg>