<?xml version="1.0" encoding="UTF-8"?>
<svg version="1.1" xmlns="http://www.w3.org/2000/svg" width="250" height="250">
<path d="M0 0 C1.60427218 0.81002595 3.20061717 1.63592423 4.7890625 2.4765625 C13.8511427 7.23044064 21.7136249 9.47021032 32.0390625 9.0390625 C38.88541619 8.97707338 44.03933345 9.01650976 49.234375 13.765625 C52.35346895 17.15477038 54.8891398 20.7812666 57.3515625 24.6640625 C62.65202412 32.72518121 69.4796974 37.02476484 78.04663086 41.08618164 C83.21720566 43.63284256 87.01723719 46.67647031 89.26953125 52.19921875 C89.37910156 52.84761719 89.48867187 53.49601562 89.6015625 54.1640625 C89.74207031 54.92976563 89.88257813 55.69546875 90.02734375 56.484375 C90.30948697 58.39382912 90.57551742 60.30568427 90.83203125 62.21875 C92.50033308 74.33889147 96.37799237 82.55865347 103.48828125 92.31640625 C107.16458664 97.63325359 107.1971942 102.83650887 106.4140625 109.1015625 C105.36411125 112.79682238 103.98947457 116.36712251 102.63427734 119.95898438 C100.28120843 126.24324519 98.8953005 131.57145038 99.89453125 138.37109375 C100.42384124 142.17177827 100.6168515 145.82816835 100.6640625 149.6640625 C100.70273437 151.55318359 100.70273437 151.55318359 100.7421875 153.48046875 C100.00647972 161.59952961 95.34654375 165.25339154 89.5390625 170.2890625 C83.18255626 176.02713585 79.04272895 180.81946271 76.4140625 189.1015625 C75.64724836 191.21491281 74.85489558 193.31914726 74.0390625 195.4140625 C73.70132813 196.35894531 73.36359375 197.30382812 73.015625 198.27734375 C69.83744515 203.88179261 65.66869088 206.98579327 59.48828125 208.75390625 C57.69577095 209.19493118 55.90002424 209.62297173 54.1015625 210.0390625 C46.00856029 212.13688688 39.71576834 214.40624722 33.4140625 220.1015625 C32.60710937 220.81183594 31.80015625 221.52210938 30.96875 222.25390625 C29.43545971 223.61710485 27.91742864 224.9978478 26.421875 226.40234375 C21.86675488 230.25735786 18.22113101 230.45581548 12.3984375 230.37109375 C9.4339611 230.10335963 6.9367795 229.48651929 4.1015625 228.6015625 C-5.48035621 225.73108756 -14.55603747 226.52080023 -23.99609375 229.41796875 C-30.59788955 231.1605242 -36.67164571 230.88076128 -42.65625 227.50390625 C-45.56466429 225.39030153 -47.94952371 222.87860745 -50.3359375 220.19921875 C-57.26777113 213.73672802 -64.85757148 211.64400326 -73.89648438 209.51757812 C-80.00490162 207.94507042 -84.42195993 205.95715577 -88.5859375 201.1015625 C-90.15234375 198.3125 -90.15234375 198.3125 -91.1484375 195.4765625 C-95.38053819 184.37936038 -99.5416602 175.97612586 -108.703125 168.3359375 C-109.40695313 167.74296875 -110.11078125 167.15 -110.8359375 166.5390625 C-111.80273438 165.76369141 -111.80273438 165.76369141 -112.7890625 164.97265625 C-116.08561498 161.53994182 -117.47287437 158.31295323 -117.9140625 153.5859375 C-117.88828125 152.35359375 -117.8625 151.12125 -117.8359375 149.8515625 C-117.82276489 148.86095825 -117.82276489 148.86095825 -117.80932617 147.8503418 C-117.73591921 144.15612508 -117.42541825 140.56740093 -116.8984375 136.9140625 C-115.98931162 129.06960489 -118.90800361 121.7231146 -121.7734375 114.5390625 C-124.06411925 108.40109674 -124.90889522 102.34442099 -122.92578125 95.984375 C-120.69993367 91.18579449 -117.45440521 86.98827271 -114.26953125 82.7890625 C-109.84169231 75.72095765 -108.83557503 68.32434458 -107.9453125 60.16796875 C-107.08223773 53.67385737 -105.03447634 47.83140889 -99.73852539 43.63916016 C-96.89174707 41.77727877 -93.89644208 40.26061233 -90.87109375 38.7109375 C-80.98031448 33.55525009 -76.07662169 28.07203409 -70.2734375 18.62890625 C-66.73801214 13.33395207 -62.75569885 10.7601005 -56.5859375 9.1015625 C-52.91717665 8.97111767 -49.30088523 9.1027457 -45.6328125 9.2265625 C-35.82011855 9.17495554 -28.07276571 5.71106899 -19.5546875 1.203125 C-12.40088164 -2.40896058 -7.43109227 -3.39410531 0 0 Z " fill="#FDFDFD" transform="translate(133.5859375,11.8984375)"/>
<path d="M0 0 C3.79320225 3.99284448 6.29672222 7.72230833 6.1875 13.3125 C6.17847656 14.1065625 6.16945313 14.900625 6.16015625 15.71875 C6 18 6 18 5.125 21.3125 C4.94836854 26.52312805 7.17530727 29.92874691 9.65234375 34.42578125 C11 37 11 37 11 39 C12.0725 38.67 13.145 38.34 14.25 38 C23.94487079 35.66162447 31.5694995 36.62569099 40.50390625 41.00390625 C43.06457656 42.33698776 43.06457656 42.33698776 46 41 C47.37677785 39.13692349 47.37677785 39.13692349 48.5625 36.9375 C49.81640625 34.71484375 49.81640625 34.71484375 51 33 C51.66 33 52.32 33 53 33 C52.46884894 37.51478398 50.63379708 40.34666857 48 44 C49.32817738 46.87771765 50.85048431 49.13413015 52.875 51.5625 C57.89499775 58.14509509 60 64.77079412 60 73 C63.96 73 67.92 73 72 73 C72.33 73.99 72.66 74.98 73 76 C66.565 75.505 66.565 75.505 60 75 C59.9175 75.94875 59.835 76.8975 59.75 77.875 C58.30396886 87.43808597 53.94708637 94.38101011 47 101 C46.01 101.66 45.02 102.32 44 103 C45.30155006 107.07964281 45.30155006 107.07964281 47 111 C47.08308638 112.37548156 47.10736016 113.75485796 47.09765625 115.1328125 C47.09443359 115.93847656 47.09121094 116.74414062 47.08789062 117.57421875 C47.07951172 118.41597656 47.07113281 119.25773437 47.0625 120.125 C47.05798828 120.97449219 47.05347656 121.82398438 47.04882812 122.69921875 C47.03702874 124.79950909 47.01909306 126.8997633 47 129 C43.8689788 130.01182014 42.47951439 130.22686702 39.45703125 128.796875 C30.16730946 121.60660289 25.86495075 112.47150985 21 102 C20.69771484 101.35981934 20.39542969 100.71963867 20.08398438 100.06005859 C18.67043989 97.06175869 17.30163397 94.04856378 16 91 C14.700625 91.12375 13.40125 91.2475 12.0625 91.375 C11.33160156 91.44460937 10.60070312 91.51421875 9.84765625 91.5859375 C7.43349794 91.93696738 5.18066893 92.43550499 2.81640625 93.015625 C-2.18568317 94.14858351 -7.00808285 94.3830866 -12.125 94.375 C-13.03354736 94.37556396 -13.94209473 94.37612793 -14.87817383 94.37670898 C-23.50558736 94.23776534 -32.19494763 92.90252619 -40 89 C-40.27529541 89.86713623 -40.55059082 90.73427246 -40.83422852 91.62768555 C-42.76954741 97.22612742 -45.3691739 102.48150415 -47.9375 107.8125 C-48.45634766 108.95009766 -48.97519531 110.08769531 -49.50976562 111.25976562 C-53.41639828 119.3099373 -58.09503844 125.50382064 -66 130 C-68.83569336 130.22973633 -68.83569336 130.22973633 -71 130 C-73.54580426 124.90839149 -73.14237215 118.45740878 -72 113 C-68.67018201 103.79708014 -63.84625418 95.09543263 -59.08203125 86.56640625 C-57.84360097 84.12843696 -57.84360097 84.12843696 -58.0703125 81.81640625 C-59.28884513 79.43565973 -60.68084276 78.46404 -62.875 76.9375 C-66.79657248 74.02612459 -70.35615073 70.88156782 -73.8125 67.4375 C-74.70582031 66.54933594 -75.59914063 65.66117187 -76.51953125 64.74609375 C-82.93930179 57.63885172 -82.93930179 57.63885172 -83.078125 53.890625 C-81.47732954 51.08343296 -79.35844202 49.63309986 -76.75 47.75 C-75.79609375 47.04359375 -74.8421875 46.3371875 -73.859375 45.609375 C-70.81597417 43.89642262 -69.41044893 43.29185031 -66 44 C-64.2265625 45.72265625 -64.2265625 45.72265625 -62.625 48.0625 C-58.25609256 54.09349179 -53.72153715 59.53738995 -47 63 C-46.7417041 62.14889648 -46.4834082 61.29779297 -46.21728516 60.42089844 C-44.93536172 56.81834907 -43.32953358 53.63480658 -41.5234375 50.265625 C-31.31710759 31.89438966 -31.31710759 31.89438966 -29.86328125 11.43359375 C-30.03893705 7.02212386 -28.76310219 5.35830634 -26 2 C-18.50748788 -5.885869 -8.75957568 -6.01490863 0 0 Z " fill="#4486F3" transform="translate(137,63)"/>
<path d="M0 0 C0.66 0 1.32 0 2 0 C1.46884894 4.51478398 -0.36620292 7.34666857 -3 11 C-1.67182262 13.87771765 -0.14951569 16.13413015 1.875 18.5625 C6.89499775 25.14509509 9 31.77079412 9 40 C12.96 40 16.92 40 21 40 C21.33 40.99 21.66 41.98 22 43 C17.71 42.67 13.42 42.34 9 42 C8.9175 42.94875 8.835 43.8975 8.75 44.875 C7.34117535 54.19202703 3.15098061 61.82112663 -4 68 C-5.65315929 68.69949024 -7.31886062 69.37072058 -9 70 C-9.26925293 69.43643799 -9.53850586 68.87287598 -9.81591797 68.29223633 C-11.16765383 65.46503785 -12.52114455 62.63868411 -13.875 59.8125 C-14.39223633 58.73218506 -14.90947266 57.65187012 -15.44238281 56.53881836 C-18.86674451 49.40176411 -22.32356454 42.28142054 -25.8046875 35.171875 C-26.63040028 33.48333133 -27.45608387 31.79477339 -28.28173828 30.10620117 C-29.51551719 27.58326623 -30.75070392 25.06106876 -31.99017334 22.54092407 C-33.15832965 20.16566119 -34.32176237 17.7881363 -35.484375 15.41015625 C-35.84006561 14.69039612 -36.19575623 13.97063599 -36.56222534 13.22906494 C-39 8.22727005 -39 8.22727005 -39 6 C-30.23715879 2.81351229 -22.02055997 2.82169904 -13.4375 6.5625 C-11.98150391 7.27599609 -11.98150391 7.27599609 -10.49609375 8.00390625 C-7.93542344 9.33698776 -7.93542344 9.33698776 -5 8 C-3.62322215 6.13692349 -3.62322215 6.13692349 -2.4375 3.9375 C-1.18359375 1.71484375 -1.18359375 1.71484375 0 0 Z " fill="#3FDC85" transform="translate(188,96)"/>
<path d="M0 0 C3.76687293 3.9651294 6.28292692 7.76261834 6.3125 13.3125 C6.15723557 18.57423913 5.08832558 22.81293562 1.34765625 26.73046875 C-3.94770925 31.4436799 -8.07817004 32.42392059 -15.140625 32.33984375 C-21.21840952 31.61748411 -24.72769949 28.55856813 -28.5 23.9375 C-30.95320196 18.94348171 -30.73724705 13.40146308 -30 8 C-27.59154971 2.90520131 -23.38622246 -1.53263693 -18.125 -3.8125 C-10.89754496 -4.45021662 -6.09562064 -4.18565951 0 0 Z " fill="#0B3345" transform="translate(137,63)"/>
<path d="M0 0 C3.02925987 2.60711711 4.50656499 5.62547649 6.28515625 9.171875 C6.58691269 9.7725177 6.88866913 10.3731604 7.1995697 10.99200439 C7.8352983 12.26142483 8.46801368 13.53235821 9.09790039 14.8046875 C10.0544417 16.73374879 11.02352518 18.65611421 11.99414062 20.578125 C12.61274842 21.81732462 13.23061093 23.05689662 13.84765625 24.296875 C14.40461182 25.41416992 14.96156738 26.53146484 15.53540039 27.68261719 C17.05059014 31.1145889 18.05590881 34.37749139 19 38 C13.18585576 41.35431398 6.71682765 41.20614222 0.1875 41.25 C-0.56853516 41.270625 -1.32457031 41.29125 -2.10351562 41.3125 C-7.88510956 41.35193116 -12.6340328 40.11104362 -18 38 C-12.33711081 25.15278802 -6.38743905 12.50307219 0 0 Z " fill="#FAFCFE" transform="translate(124,96)"/>
<path d="M0 0 C0.37125 0.515625 0.7425 1.03125 1.125 1.5625 C1.74375 2.366875 2.3625 3.17125 3 4 C3.60328125 4.85078125 3.60328125 4.85078125 4.21875 5.71875 C8.85286762 11.7945931 13.65839889 13.06800296 20.9296875 14.62890625 C30.80259733 16.8270732 36.73470373 20.82814733 44.0625 27.6875 C48.83864072 32.0515238 52.69517406 34.91214641 59.296875 35.046875 C65.02147033 34.6457887 70.44769797 33.21250848 75.9453125 31.62109375 C82.79113134 30.22916895 88.47867705 31.10978507 95.0625 33 C102.45758447 35.11084378 108.7060761 36.34170805 115.7734375 32.53515625 C118.56207325 30.61246528 120.91374229 28.38856186 123.375 26.0625 C131.59415866 18.39503829 139.79584716 15.51827828 150.58203125 12.9921875 C156.40073451 11.30310107 159.45505518 8.84475792 163 4 C163.5775 3.236875 164.155 2.47375 164.75 1.6875 C165.1625 1.130625 165.575 0.57375 166 0 C165.35773213 5.45927687 162.83646022 9.15995993 158.99609375 13.0078125 C154.84889881 15.76539975 150.60960957 16.6354859 145.8125 17.8125 C137.70666209 19.97101467 131.31919054 22.28888251 125 28 C124.19304687 28.71027344 123.38609375 29.42054688 122.5546875 30.15234375 C121.02139721 31.51554235 119.50336614 32.8962853 118.0078125 34.30078125 C113.45269238 38.15579536 109.80706851 38.35425298 103.984375 38.26953125 C101.0198986 38.00179713 98.522717 37.38495679 95.6875 36.5 C86.10558129 33.62952506 77.02990003 34.41923773 67.58984375 37.31640625 C60.98804795 39.0589617 54.91429179 38.77919878 48.9296875 35.40234375 C46.02127321 33.28873903 43.63641379 30.77704495 41.25 28.09765625 C34.31816637 21.63516552 26.72836602 19.54244076 17.68945312 17.41601562 C10.15571865 15.47658434 5.15645461 12.54771564 1.0625 5.8125 C0 3 0 3 0 0 Z " fill="#090909" transform="translate(42,204)"/>
<path d="M0 0 C4.99503071 0.4913145 6.31841769 1.88091769 9.8125 5.375 C11.22250664 8.19501327 11.05798451 10.24507255 10.8125 13.375 C9.55146101 16.14928577 8.50160086 17.85817435 6.0625 19.6875 C2.7914382 20.68699111 0.21507412 20.7331657 -3.1875 20.375 C-5.94079021 18.57937595 -7.71377461 17.32245078 -9.1875 14.375 C-9.69448467 9.22065588 -9.69448467 9.22065588 -9.1875 6.375 C-6.75 3.4375 -6.75 3.4375 -4.1875 1.375 C-3.1875 0.375 -3.1875 0.375 0 0 Z " fill="#F7F8F9" transform="translate(124.1875,66.625)"/>
<path d="M0 0 C1.640625 1.04296875 1.640625 1.04296875 3 3 C3.21714241 5.81127043 3.28284276 8.3883345 3.1875 11.1875 C3.17396484 11.93708984 3.16042969 12.68667969 3.14648438 13.45898438 C3.11118539 15.30629767 3.05737917 17.15324066 3 19 C-0.96 19 -4.92 19 -9 19 C-9.10787818 16.22813012 -9.18723327 13.46044463 -9.25 10.6875 C-9.28351563 9.90181641 -9.31703125 9.11613281 -9.3515625 8.30664062 C-9.45043554 2.4978498 -9.45043554 2.4978498 -7.14453125 -0.05078125 C-4.29546698 -1.31184248 -2.9092228 -1.04433639 0 0 Z " fill="#4586F2" transform="translate(128,41)"/>
<path d="M0 0 C0.33 0.99 0.66 1.98 1 3 C-2.07276316 7.90310945 -6.77198172 11.71100309 -11.125 15.4375 C-15.6976794 19.43859447 -18.52032612 23.47946289 -21 29 C-22 26 -22 26 -21.3125 24.01171875 C-16.55829544 15.59281485 -9.58736804 9.65316908 -2.39526367 3.35351562 C-0.87739546 2.03028933 -0.87739546 2.03028933 0 0 Z " fill="#0A0A0A" transform="translate(232,169)"/>
<path d="M0 0 C0.6909375 0.70640625 1.381875 1.4128125 2.09375 2.140625 C4.05388525 4.10352101 6.0684102 5.97065016 8.15625 7.796875 C20.96451252 19.05279275 20.96451252 19.05279275 23 26 C22.67 26.99 22.34 27.98 22 29 C21.72027344 28.43152344 21.44054687 27.86304688 21.15234375 27.27734375 C16.81760058 18.92843328 10.82464362 13.5696414 3.69921875 7.578125 C2 6 2 6 0 3 C0 2.01 0 1.02 0 0 Z " fill="#0B0B0B" transform="translate(17,169)"/>
<path d="M0 0 C1 3 1 3 0.1796875 4.90234375 C-2.43050611 8.97393319 -4.77091417 12.44029015 -9 15 C-9.99 14.67 -10.98 14.34 -12 14 C-11 12 -11 12 -8.6875 10.6875 C-4.47249156 8.04086679 -2.00405869 4.50913205 0 0 Z " fill="#141414" transform="translate(207,204)"/>
<path d="M0 0 C3.63 0 7.26 0 11 0 C11.33 0.99 11.66 1.98 12 3 C8.04 2.67 4.08 2.34 0 2 C0 1.34 0 0.68 0 0 Z " fill="#54E093" transform="translate(198,136)"/>
<path d="M0 0 C2.0625 0.4375 2.0625 0.4375 4 1 C4 2.32 4 3.64 4 5 C2.68 5.33 1.36 5.66 0 6 C-0.38218767 4.34385343 -0.71395102 2.67542976 -1 1 C-0.67 0.67 -0.34 0.34 0 0 Z " fill="#ECFBF3" transform="translate(167,111)"/>
<path d="M0 0 C0 3 0 3 -1.53125 4.82421875 C-2.1809375 5.43910156 -2.830625 6.05398437 -3.5 6.6875 C-4.1496875 7.31011719 -4.799375 7.93273437 -5.46875 8.57421875 C-5.9740625 9.04472656 -6.479375 9.51523438 -7 10 C-7.66 9.67 -8.32 9.34 -9 9 C-7.87895467 7.68412059 -6.75303035 6.37239647 -5.625 5.0625 C-4.99851563 4.33160156 -4.37203125 3.60070312 -3.7265625 2.84765625 C-2 1 -2 1 0 0 Z " fill="#141414" transform="translate(168,228)"/>
<path d="M0 0 C1.65 0.33 3.3 0.66 5 1 C4.67 2.32 4.34 3.64 4 5 C2.35 4.67 0.7 4.34 -1 4 C-0.67 2.68 -0.34 1.36 0 0 Z " fill="#F2FCF7" transform="translate(181,141)"/>
<path d="M0 0 C0.66 0 1.32 0 2 0 C1.5206753 4.31392226 0.2542015 6.16569547 -3 9 C-3 4.73350364 -2.43160605 3.36683915 0 0 Z " fill="#53E092" transform="translate(188,96)"/>
<path d="M0 0 C0.66 0.33 1.32 0.66 2 1 C-0.77280706 4.08089673 -3.06326356 5.68775452 -7 7 C-5.55609075 3.19333016 -3.65047197 1.73397418 0 0 Z " fill="#0A0A0A" transform="translate(176,222)"/>
</svg>
