<svg version="1.1" id="Layer_1" xmlns="http://www.w3.org/2000/svg" xmlns:xlink="http://www.w3.org/1999/xlink" x="0px" y="0px"
	 width="100%" viewBox="0 0 460 460" enable-background="new 0 0 460 460" xml:space="preserve">
<path fill="#FF5F4C" opacity="1.000000" stroke="none" 
	d="
M255.000000,461.000000 
	C170.000000,461.000000 85.500000,461.000000 1.000000,461.000000 
	C1.000000,307.666656 1.000000,154.333328 1.000000,1.000000 
	C154.333328,1.000000 307.666656,1.000000 461.000000,1.000000 
	C461.000000,154.333328 461.000000,307.666656 461.000000,461.000000 
	C392.500000,461.000000 324.000000,461.000000 255.000000,461.000000 
M77.396599,256.945129 
	C71.311058,262.355286 63.991890,263.983582 56.108006,263.920685 
	C52.109417,263.888794 48.085667,263.638184 44.118050,263.990540 
	C39.623016,264.389679 38.037140,263.014648 38.146908,258.258606 
	C38.462074,244.603165 38.257748,230.935715 38.257599,217.272995 
	C38.257572,214.653610 38.257599,212.034225 38.257599,209.386871 
	C34.560017,209.386871 31.470263,209.386871 28.239151,209.386871 
	C28.239151,230.749649 28.239151,251.804245 28.239151,272.807739 
	C40.688049,272.807739 52.977753,273.988647 64.931335,272.489471 
	C77.972107,270.853973 88.735809,263.970734 94.222755,251.111252 
	C98.239014,241.698593 99.182487,231.850632 97.498253,221.729782 
	C95.039902,206.957031 87.561783,196.284378 73.130081,190.943649 
	C58.375309,185.483353 43.227055,189.279465 28.273544,187.942917 
	C28.273544,191.478592 28.273544,194.212814 28.273544,197.290833 
	C37.426563,197.290833 46.245937,197.162155 55.059517,197.332794 
	C61.736702,197.462082 68.183472,198.345963 74.200989,201.957108 
	C90.511421,211.745071 92.340897,242.432663 77.396599,256.945129 
M387.545227,271.998749 
	C399.085785,274.785034 410.567474,275.766205 421.607025,270.144531 
	C430.344177,265.695312 434.671692,258.357056 433.931061,248.609772 
	C433.249939,239.645859 428.193665,233.580490 419.711945,230.593781 
	C415.644501,229.161484 411.424744,228.168152 407.311890,226.856995 
	C400.838104,224.793182 394.244751,222.982559 388.023285,220.315292 
	C385.846405,219.382004 383.666656,216.449783 383.128845,214.060989 
	C381.234863,205.649185 385.185425,199.686295 393.667542,197.873306 
	C405.147797,195.419449 415.752319,197.608429 425.320221,205.465790 
	C426.846649,202.558289 428.190186,199.999084 429.893463,196.754700 
	C425.532959,194.384033 421.719147,191.527451 417.429932,190.127731 
	C405.310974,186.172913 393.232269,185.861328 381.953064,193.058853 
	C371.182098,199.932068 367.167511,217.194260 377.238861,225.775116 
	C382.032257,229.859085 388.901581,231.661728 395.023865,233.989273 
	C401.833649,236.578201 409.025513,238.197281 415.743713,240.980423 
	C420.656830,243.015762 423.593536,247.150711 422.761780,252.947357 
	C421.993408,258.302277 418.715820,262.219574 413.643616,262.922302 
	C406.996063,263.843353 399.900391,264.548492 393.464630,263.168274 
	C386.420746,261.657562 379.909393,257.663696 372.835907,254.609558 
	C372.594147,254.986725 371.926178,255.924423 371.364746,256.922058 
	C368.342590,262.292145 368.472992,262.990021 374.116486,265.899506 
	C378.248047,268.029480 382.551819,269.825562 387.545227,271.998749 
M336.743134,196.616089 
	C336.735382,209.591599 336.898956,222.570511 336.640137,235.541016 
	C336.528046,241.156723 336.012329,246.853943 334.851898,252.338959 
	C332.923309,261.455170 328.279999,265.146027 319.001953,264.811829 
	C313.499573,264.613617 308.040833,263.203156 302.407440,262.313293 
	C301.117584,265.669220 298.612366,269.558899 304.326324,271.738556 
	C321.657043,278.349548 344.248077,274.844452 345.918610,250.221909 
	C347.289154,230.020935 346.738861,209.689438 347.005096,189.415314 
	C347.010590,188.996201 346.589355,188.571472 346.467072,188.339172 
	C343.209412,188.339172 340.149628,188.339172 336.743347,188.339172 
	C336.743347,191.027832 336.743347,193.343445 336.743134,196.616089 
M233.814240,257.496826 
	C233.814285,254.165298 233.618576,250.818604 233.875137,247.506958 
	C234.087372,244.767639 234.159485,241.683670 235.456619,239.418274 
	C242.143661,227.739578 249.208908,216.277496 256.135010,204.735535 
	C259.327209,199.415955 262.503052,194.086609 266.108398,188.055649 
	C262.275909,188.055649 259.597717,187.840881 256.981598,188.150604 
	C255.761353,188.295059 254.180313,189.172913 253.578918,190.197403 
	C244.495117,205.672043 235.531876,221.217636 226.584106,236.771759 
	C225.277313,239.043411 223.270142,241.407196 223.173019,243.792877 
	C222.781097,253.421112 223.010544,263.074615 223.010544,272.847412 
	C226.747879,272.847412 230.134399,272.847412 233.814209,272.847412 
	C233.814209,267.797485 233.814209,263.144836 233.814240,257.496826 
M170.399597,227.978775 
	C166.744812,219.165604 163.090012,210.352432 159.343109,201.317154 
	C155.383347,207.591248 153.195374,213.153976 157.483170,220.317139 
	C160.940460,226.092850 162.426529,233.048523 164.968140,239.973892 
	C159.373260,239.973892 154.723526,239.973221 150.073792,239.974060 
	C142.855652,239.975357 142.855652,239.975784 141.223251,248.034744 
	C148.753922,248.034744 156.189865,248.185654 163.614395,247.960236 
	C166.570236,247.870483 168.175476,248.744019 169.143600,251.562653 
	C170.707642,256.116272 172.541504,260.579376 174.330261,265.053162 
	C177.767532,273.649963 177.787766,273.645813 187.005753,273.088257 
	C187.276825,273.071838 187.530807,272.772980 188.346237,272.252502 
	C182.507690,257.802612 176.622208,243.236526 170.399597,227.978775 
M149.908020,199.544952 
	C151.145782,195.879181 152.383545,192.213394 153.586426,188.650925 
	C147.113205,186.616425 144.455200,189.139236 142.327148,194.607208 
	C135.335281,212.572525 127.693794,230.283997 120.414871,248.139038 
	C117.118660,256.224579 114.088463,264.418518 110.596138,273.445892 
	C115.210487,272.139954 120.161377,276.088776 122.530830,270.004028 
	C131.579620,246.766830 140.589233,223.514328 149.908020,199.544952 
M206.906372,195.511398 
	C201.905014,186.939850 201.905014,186.939850 191.487091,188.751083 
	C200.094772,203.212509 208.543213,217.406403 217.081207,231.750748 
	C221.760849,226.714233 223.167877,222.247314 219.033142,216.371780 
	C214.561615,210.017593 211.124924,202.935196 206.906372,195.511398 
M276.602417,260.068329 
	C275.723175,260.923340 274.169556,261.717285 274.085602,262.644318 
	C273.779694,266.023071 273.964752,269.446289 273.964752,272.902924 
	C277.068237,272.902924 279.620850,272.902924 282.248657,272.902924 
	C282.248657,268.487183 282.248657,264.447144 282.248657,260.060486 
	C280.440094,260.060486 278.972351,260.060486 276.602417,260.068329 
z"/>
<path fill="#FFFCFC" opacity="1.000000" stroke="none" 
	d="
M77.661346,256.697998 
	C92.340897,242.432663 90.511421,211.745071 74.200989,201.957108 
	C68.183472,198.345963 61.736702,197.462082 55.059517,197.332794 
	C46.245937,197.162155 37.426563,197.290833 28.273544,197.290833 
	C28.273544,194.212814 28.273544,191.478592 28.273544,187.942917 
	C43.227055,189.279465 58.375309,185.483353 73.130081,190.943649 
	C87.561783,196.284378 95.039902,206.957031 97.498253,221.729782 
	C99.182487,231.850632 98.239014,241.698593 94.222755,251.111252 
	C88.735809,263.970734 77.972107,270.853973 64.931335,272.489471 
	C52.977753,273.988647 40.688049,272.807739 28.239151,272.807739 
	C28.239151,251.804245 28.239151,230.749649 28.239151,209.386871 
	C31.470263,209.386871 34.560017,209.386871 38.257599,209.386871 
	C38.257599,212.034225 38.257572,214.653610 38.257599,217.272995 
	C38.257748,230.935715 38.462074,244.603165 38.146908,258.258606 
	C38.037140,263.014648 39.623016,264.389679 44.118050,263.990540 
	C48.085667,263.638184 52.109417,263.888794 56.108006,263.920685 
	C63.991890,263.983582 71.311058,262.355286 77.661346,256.697998 
z"/>
<path fill="#FFFBFA" opacity="1.000000" stroke="none" 
	d="
M387.162048,271.884583 
	C382.551819,269.825562 378.248047,268.029480 374.116486,265.899506 
	C368.472992,262.990021 368.342590,262.292145 371.364746,256.922058 
	C371.926178,255.924423 372.594147,254.986725 372.835907,254.609558 
	C379.909393,257.663696 386.420746,261.657562 393.464630,263.168274 
	C399.900391,264.548492 406.996063,263.843353 413.643616,262.922302 
	C418.715820,262.219574 421.993408,258.302277 422.761780,252.947357 
	C423.593536,247.150711 420.656830,243.015762 415.743713,240.980423 
	C409.025513,238.197281 401.833649,236.578201 395.023865,233.989273 
	C388.901581,231.661728 382.032257,229.859085 377.238861,225.775116 
	C367.167511,217.194260 371.182098,199.932068 381.953064,193.058853 
	C393.232269,185.861328 405.310974,186.172913 417.429932,190.127731 
	C421.719147,191.527451 425.532959,194.384033 429.893463,196.754700 
	C428.190186,199.999084 426.846649,202.558289 425.320221,205.465790 
	C415.752319,197.608429 405.147797,195.419449 393.667542,197.873306 
	C385.185425,199.686295 381.234863,205.649185 383.128845,214.060989 
	C383.666656,216.449783 385.846405,219.382004 388.023285,220.315292 
	C394.244751,222.982559 400.838104,224.793182 407.311890,226.856995 
	C411.424744,228.168152 415.644501,229.161484 419.711945,230.593781 
	C428.193665,233.580490 433.249939,239.645859 433.931061,248.609772 
	C434.671692,258.357056 430.344177,265.695312 421.607025,270.144531 
	C410.567474,275.766205 399.085785,274.785034 387.162048,271.884583 
z"/>
<path fill="#FFFDFC" opacity="1.000000" stroke="none" 
	d="
M336.743225,196.137573 
	C336.743347,193.343445 336.743347,191.027832 336.743347,188.339172 
	C340.149628,188.339172 343.209412,188.339172 346.467072,188.339172 
	C346.589355,188.571472 347.010590,188.996201 347.005096,189.415314 
	C346.738861,209.689438 347.289154,230.020935 345.918610,250.221909 
	C344.248077,274.844452 321.657043,278.349548 304.326324,271.738556 
	C298.612366,269.558899 301.117584,265.669220 302.407440,262.313293 
	C308.040833,263.203156 313.499573,264.613617 319.001953,264.811829 
	C328.279999,265.146027 332.923309,261.455170 334.851898,252.338959 
	C336.012329,246.853943 336.528046,241.156723 336.640137,235.541016 
	C336.898956,222.570511 336.735382,209.591599 336.743225,196.137573 
z"/>
<path fill="#FFFAFA" opacity="1.000000" stroke="none" 
	d="
M233.814224,257.994507 
	C233.814209,263.144836 233.814209,267.797485 233.814209,272.847412 
	C230.134399,272.847412 226.747879,272.847412 223.010544,272.847412 
	C223.010544,263.074615 222.781097,253.421112 223.173019,243.792877 
	C223.270142,241.407196 225.277313,239.043411 226.584106,236.771759 
	C235.531876,221.217636 244.495117,205.672043 253.578918,190.197403 
	C254.180313,189.172913 255.761353,188.295059 256.981598,188.150604 
	C259.597717,187.840881 262.275909,188.055649 266.108398,188.055649 
	C262.503052,194.086609 259.327209,199.415955 256.135010,204.735535 
	C249.208908,216.277496 242.143661,227.739578 235.456619,239.418274 
	C234.159485,241.683670 234.087372,244.767639 233.875137,247.506958 
	C233.618576,250.818604 233.814285,254.165298 233.814224,257.994507 
z"/>
<path fill="#FFFCFB" opacity="1.000000" stroke="none" 
	d="
M170.568146,228.324615 
	C176.622208,243.236526 182.507690,257.802612 188.346237,272.252502 
	C187.530807,272.772980 187.276825,273.071838 187.005753,273.088257 
	C177.787766,273.645813 177.767532,273.649963 174.330261,265.053162 
	C172.541504,260.579376 170.707642,256.116272 169.143600,251.562653 
	C168.175476,248.744019 166.570236,247.870483 163.614395,247.960236 
	C156.189865,248.185654 148.753922,248.034744 141.223251,248.034744 
	C142.855652,239.975784 142.855652,239.975357 150.073792,239.974060 
	C154.723526,239.973221 159.373260,239.973892 164.968140,239.973892 
	C162.426529,233.048523 160.940460,226.092850 157.483170,220.317139 
	C153.195374,213.153976 155.383347,207.591248 159.343109,201.317154 
	C163.090012,210.352432 166.744812,219.165604 170.568146,228.324615 
z"/>
<path fill="#FFFAF9" opacity="1.000000" stroke="none" 
	d="
M149.760742,199.906250 
	C140.589233,223.514328 131.579620,246.766830 122.530830,270.004028 
	C120.161377,276.088776 115.210487,272.139954 110.596138,273.445892 
	C114.088463,264.418518 117.118660,256.224579 120.414871,248.139038 
	C127.693794,230.283997 135.335281,212.572525 142.327148,194.607208 
	C144.455200,189.139236 147.113205,186.616425 153.586426,188.650925 
	C152.383545,192.213394 151.145782,195.879181 149.760742,199.906250 
z"/>
<path fill="#FFF9F9" opacity="1.000000" stroke="none" 
	d="
M207.071625,195.840912 
	C211.124924,202.935196 214.561615,210.017593 219.033142,216.371780 
	C223.167877,222.247314 221.760849,226.714233 217.081207,231.750748 
	C208.543213,217.406403 200.094772,203.212509 191.487091,188.751083 
	C201.905014,186.939850 201.905014,186.939850 207.071625,195.840912 
z"/>
<path fill="#FFF4F3" opacity="1.000000" stroke="none" 
	d="
M277.053528,260.064392 
	C278.972351,260.060486 280.440094,260.060486 282.248657,260.060486 
	C282.248657,264.447144 282.248657,268.487183 282.248657,272.902924 
	C279.620850,272.902924 277.068237,272.902924 273.964752,272.902924 
	C273.964752,269.446289 273.779694,266.023071 274.085602,262.644318 
	C274.169556,261.717285 275.723175,260.923340 277.053528,260.064392 
z"/>
</svg>